<svg xmlns="http://www.w3.org/2000/svg" viewBox="0 0 120 100">
  <!-- Cloud body -->
  <path d="
    M 18,75
    C 6,75 0,64 6,54
    C -2,44 6,30 20,26
    C 18,12 34,4 50,10
    C 56,0 74,-2 84,8
    C 92,4 106,14 104,28
    C 116,34 118,52 108,62
    C 114,72 102,78 88,76
    L 18,75 Z"
    fill="#F5ECDA" stroke="#2B6B2F" stroke-width="7" stroke-linejoin="round"/>

  <!-- Sprout leaf -->
  <path d="M 46,14 C 42,4 46,-2 52,1 C 56,-2 57,6 50,12" fill="#5C3D1E"/>

  <!-- Left cheek -->
  <circle cx="38" cy="52" r="7.5" fill="#D4A530" opacity="0.55"/>

  <!-- Right cheek -->
  <circle cx="78" cy="52" r="7.5" fill="#D4A530" opacity="0.55"/>

  <!-- Smile -->
  <path d="M 46,58 Q 58,72 70,58" fill="none" stroke="#2B6B2F" stroke-width="3.5" stroke-linecap="round"/>
</svg>
